<?xml version='1.0' encoding='UTF-8'?>
<svg width="11.6mm" height="11.6mm" version="1.1" viewBox="0 0 11.6 11.6" xmlns="http://www.w3.org/2000/svg"><rect width="100%" height="100%" fill="#ffffff"/><path d="M1.6,1.6H2V2H1.6zM2,1.6H2.4V2H2zM2.4,1.6H2.8V2H2.4zM2.8,1.6H3.2V2H2.8zM3.2,1.6H3.6V2H3.2zM3.6,1.6H4V2H3.6zM4,1.6H4.4V2H4zM6,1.6H6.4V2H6zM7.2,1.6H7.6V2H7.2zM7.6,1.6H8V2H7.6zM8,1.6H8.4V2H8zM8.4,1.6H8.8V2H8.4zM8.8,1.6H9.2V2H8.8zM9.2,1.6H9.6V2H9.2zM9.6,1.6H10V2H9.6zM1.6,2H2V2.4H1.6zM4,2H4.4V2.4H4zM5.6,2H6V2.4H5.6zM6.4,2H6.8V2.4H6.4zM7.2,2H7.6V2.4H7.2zM9.6,2H10V2.4H9.6zM1.6,2.4H2V2.8H1.6zM2.4,2.4H2.8V2.8H2.4zM2.8,2.4H3.2V2.8H2.8zM3.2,2.4H3.6V2.8H3.2zM4,2.4H4.4V2.8H4zM5.2,2.4H5.6V2.8H5.2zM5.6,2.4H6V2.8H5.6zM6,2.4H6.4V2.8H6zM7.2,2.4H7.6V2.8H7.2zM8,2.4H8.4V2.8H8zM8.4,2.4H8.8V2.8H8.4zM8.8,2.4H9.2V2.8H8.8zM9.6,2.4H10V2.8H9.6zM1.6,2.8H2V3.2H1.6zM2.4,2.8H2.8V3.2H2.4zM2.8,2.8H3.2V3.2H2.8zM3.2,2.8H3.6V3.2H3.2zM4,2.8H4.4V3.2H4zM5.2,2.8H5.6V3.2H5.2zM6,2.8H6.4V3.2H6zM7.2,2.8H7.6V3.2H7.2zM8,2.8H8.4V3.2H8zM8.4,2.8H8.8V3.2H8.4zM8.8,2.8H9.2V3.2H8.8zM9.6,2.8H10V3.2H9.6zM1.6,3.2H2V3.6H1.6zM2.4,3.2H2.8V3.6H2.4zM2.8,3.2H3.2V3.6H2.8zM3.2,3.2H3.6V3.6H3.2zM4,3.2H4.4V3.6H4zM6.4,3.2H6.8V3.6H6.4zM7.2,3.2H7.6V3.6H7.2zM8,3.2H8.4V3.6H8zM8.4,3.2H8.8V3.6H8.4zM8.8,3.2H9.2V3.6H8.8zM9.6,3.2H10V3.6H9.6zM1.6,3.6H2V4H1.6zM4,3.6H4.4V4H4zM4.8,3.6H5.2V4H4.8zM5.6,3.6H6V4H5.6zM7.2,3.6H7.6V4H7.2zM9.6,3.6H10V4H9.6zM1.6,4H2V4.4H1.6zM2,4H2.4V4.4H2zM2.4,4H2.8V4.4H2.4zM2.8,4H3.2V4.4H2.8zM3.2,4H3.6V4.4H3.2zM3.6,4H4V4.4H3.6zM4,4H4.4V4.4H4zM4.8,4H5.2V4.4H4.8zM5.6,4H6V4.4H5.6zM6.4,4H6.8V4.4H6.4zM7.2,4H7.6V4.4H7.2zM7.6,4H8V4.4H7.6zM8,4H8.4V4.4H8zM8.4,4H8.8V4.4H8.4zM8.8,4H9.2V4.4H8.8zM9.2,4H9.6V4.4H9.2zM9.6,4H10V4.4H9.6zM5.6,4.4H6V4.8H5.6zM6,4.4H6.4V4.8H6zM1.6,4.8H2V5.2H1.6zM2.8,4.8H3.2V5.2H2.8zM3.6,4.8H4V5.2H3.6zM4,4.8H4.4V5.2H4zM4.8,4.8H5.2V5.2H4.8zM5.2,4.8H5.6V5.2H5.2zM5.6,4.8H6V5.2H5.6zM6,4.8H6.4V5.2H6zM6.4,4.8H6.8V5.2H6.4zM6.8,4.8H7.2V5.2H6.8zM7.6,4.8H8V5.2H7.6zM1.6,5.2H2V5.6H1.6zM2.4,5.2H2.8V5.6H2.4zM3.2,5.2H3.6V5.6H3.2zM4.4,5.2H4.8V5.6H4.4zM4.8,5.2H5.2V5.6H4.8zM5.2,5.2H5.6V5.6H5.2zM5.6,5.2H6V5.6H5.6zM6,5.2H6.4V5.6H6zM7.2,5.2H7.6V5.6H7.2zM7.6,5.2H8V5.6H7.6zM8,5.2H8.4V5.6H8zM8.4,5.2H8.8V5.6H8.4zM8.8,5.2H9.2V5.6H8.8zM9.2,5.2H9.6V5.6H9.2zM9.6,5.2H10V5.6H9.6zM2.8,5.6H3.2V6H2.8zM3.6,5.6H4V6H3.6zM4,5.6H4.4V6H4zM5.2,5.6H5.6V6H5.2zM5.6,5.6H6V6H5.6zM6,5.6H6.4V6H6zM6.4,5.6H6.8V6H6.4zM6.8,5.6H7.2V6H6.8zM8,5.6H8.4V6H8zM8.8,5.6H9.2V6H8.8zM2.4,6H2.8V6.4H2.4zM3.2,6H3.6V6.4H3.2zM3.6,6H4V6.4H3.6zM4.8,6H5.2V6.4H4.8zM5.2,6H5.6V6.4H5.2zM5.6,6H6V6.4H5.6zM6,6H6.4V6.4H6zM6.8,6H7.2V6.4H6.8zM7.6,6H8V6.4H7.6zM8,6H8.4V6.4H8zM9.2,6H9.6V6.4H9.2zM2,6.4H2.4V6.8H2zM3.2,6.4H3.6V6.8H3.2zM3.6,6.4H4V6.8H3.6zM4,6.4H4.4V6.8H4zM4.8,6.4H5.2V6.8H4.8zM6.4,6.4H6.8V6.8H6.4zM6.8,6.4H7.2V6.8H6.8zM7.2,6.4H7.6V6.8H7.2zM8,6.4H8.4V6.8H8zM8.4,6.4H8.8V6.8H8.4zM9.6,6.4H10V6.8H9.6zM4.8,6.8H5.2V7.2H4.8zM5.6,6.8H6V7.2H5.6zM6.8,6.8H7.2V7.2H6.8zM7.2,6.8H7.6V7.2H7.2zM7.6,6.8H8V7.2H7.6zM8.4,6.8H8.8V7.2H8.4zM9.6,6.8H10V7.2H9.6zM1.6,7.2H2V7.6H1.6zM2,7.2H2.4V7.6H2zM2.4,7.2H2.8V7.6H2.4zM2.8,7.2H3.2V7.6H2.8zM3.2,7.2H3.6V7.6H3.2zM3.6,7.2H4V7.6H3.6zM4,7.2H4.4V7.6H4zM5.2,7.2H5.6V7.6H5.2zM6,7.2H6.4V7.6H6zM7.2,7.2H7.6V7.6H7.2zM9.6,7.2H10V7.6H9.6zM1.6,7.6H2V8H1.6zM4,7.6H4.4V8H4zM4.8,7.6H5.2V8H4.8zM5.2,7.6H5.6V8H5.2zM6,7.6H6.4V8H6zM7.2,7.6H7.6V8H7.2zM7.6,7.6H8V8H7.6zM8,7.6H8.4V8H8zM1.6,8H2V8.4H1.6zM2.4,8H2.8V8.4H2.4zM2.8,8H3.2V8.4H2.8zM3.2,8H3.6V8.4H3.2zM4,8H4.4V8.4H4zM5.2,8H5.6V8.4H5.2zM6.4,8H6.8V8.4H6.4zM8,8H8.4V8.4H8zM9.2,8H9.6V8.4H9.2zM1.6,8.4H2V8.8H1.6zM2.4,8.4H2.8V8.8H2.4zM2.8,8.4H3.2V8.8H2.8zM3.2,8.4H3.6V8.8H3.2zM4,8.4H4.4V8.8H4zM4.8,8.4H5.2V8.8H4.8zM5.6,8.4H6V8.8H5.6zM6.8,8.4H7.2V8.8H6.8zM7.2,8.4H7.6V8.8H7.2zM9.2,8.4H9.6V8.8H9.2zM9.6,8.4H10V8.8H9.6zM1.6,8.8H2V9.2H1.6zM2.4,8.8H2.8V9.2H2.4zM2.8,8.8H3.2V9.2H2.8zM3.2,8.8H3.6V9.2H3.2zM4,8.8H4.4V9.2H4zM5.2,8.8H5.6V9.2H5.2zM6.4,8.8H6.8V9.2H6.4zM7.2,8.8H7.6V9.2H7.2zM7.6,8.8H8V9.2H7.6zM8.8,8.8H9.2V9.2H8.8zM9.6,8.8H10V9.2H9.6zM1.6,9.2H2V9.6H1.6zM4,9.2H4.4V9.6H4zM5.2,9.2H5.6V9.6H5.2zM5.6,9.2H6V9.6H5.6zM6,9.2H6.4V9.6H6zM7.6,9.2H8V9.6H7.6zM9.6,9.2H10V9.6H9.6zM1.6,9.6H2V10H1.6zM2,9.6H2.4V10H2zM2.4,9.6H2.8V10H2.4zM2.8,9.6H3.2V10H2.8zM3.2,9.6H3.6V10H3.2zM3.6,9.6H4V10H3.6zM4,9.6H4.4V10H4zM4.8,9.6H5.2V10H4.8zM5.6,9.6H6V10H5.6zM6,9.6H6.4V10H6zM6.4,9.6H6.8V10H6.4zM7.6,9.6H8V10H7.6zM8,9.6H8.4V10H8zM8.4,9.6H8.8V10H8.4z" id="qr-path" fill="#000000" fill-opacity="1" fill-rule="nonzero" stroke="none"/></svg>